<?xml version="1.0" standalone="no"?>
<!DOCTYPE svg PUBLIC "-//W3C//DTD SVG 1.0//EN" "http://www.w3.org/TR/2001/REC-SVG-20010904/DTD/svg10.dtd">
<svg xmlns="http://www.w3.org/2000/svg" xmlns:xlink="http://www.w3.org/1999/xlink" id="body_1" width="329" height="146">

<g transform="matrix(0.8989071 0 0 0.8989071 -0 0.18852279)">
    <path d="M160.148 68.4688C 160.148 67.0781 160.414 65.7734 160.945 64.5547C 161.477 63.3359 162.195 62.2734 163.102 61.3672C 164.023 60.4453 165.094 59.7188 166.312 59.1875C 167.531 58.6562 168.836 58.3906 170.227 58.3906L170.227 58.3906L185.648 58.3906L185.648 65.1172L170.227 65.1172C 169.758 65.1172 169.32 65.2031 168.914 65.375C 168.508 65.5469 168.148 65.7891 167.836 66.1016C 167.539 66.3984 167.305 66.75 167.133 67.1562C 166.961 67.5625 166.875 68 166.875 68.4688C 166.875 68.9375 166.961 69.3828 167.133 69.8047C 167.305 70.2109 167.539 70.5703 167.836 70.8828C 168.148 71.1797 168.508 71.4141 168.914 71.5859C 169.32 71.7578 169.758 71.8438 170.227 71.8438L170.227 71.8438L176.953 71.8438C 178.344 71.8438 179.648 72.1094 180.867 72.6406C 182.102 73.1562 183.172 73.875 184.078 74.7969C 185 75.7031 185.719 76.7734 186.234 78.0078C 186.766 79.2266 187.031 80.5312 187.031 81.9219C 187.031 83.3125 186.766 84.6172 186.234 85.8359C 185.719 87.0547 185 88.125 184.078 89.0469C 183.172 89.9531 182.102 90.6719 180.867 91.2031C 179.648 91.7344 178.344 92 176.953 92L176.953 92L162.023 92L162.023 85.2734L176.953 85.2734C 177.422 85.2734 177.859 85.1875 178.266 85.0156C 178.672 84.8438 179.023 84.6094 179.32 84.3125C 179.633 84 179.875 83.6406 180.047 83.2344C 180.219 82.8281 180.305 82.3906 180.305 81.9219C 180.305 81.4531 180.219 81.0156 180.047 80.6094C 179.875 80.2031 179.633 79.8516 179.32 79.5547C 179.023 79.2422 178.672 79 178.266 78.8281C 177.859 78.6562 177.422 78.5703 176.953 78.5703L176.953 78.5703L170.227 78.5703C 168.836 78.5703 167.531 78.3047 166.312 77.7734C 165.094 77.2422 164.023 76.5234 163.102 75.6172C 162.195 74.6953 161.477 73.625 160.945 72.4062C 160.414 71.1719 160.148 69.8594 160.148 68.4688zM197.227 92L190.781 92L190.781 56.9141L197.227 56.9141L197.227 79.0391L206.766 66.9453L214.125 66.9453L205.805 77.3984L214.125 92L206.766 92L201.68 82.8828L197.227 88.7891L197.227 92zM222.703 101.562L222.703 95.1172L226.266 95.1641C 226.891 95.1641 227.492 95.0625 228.07 94.8594C 228.648 94.6562 229.18 94.375 229.664 94.0156C 230.164 93.6562 230.602 93.2266 230.977 92.7266C 231.352 92.2422 231.656 91.7109 231.891 91.1328C 231.188 91.4297 230.469 91.7266 229.734 92.0234C 229.016 92.3203 228.289 92.4688 227.555 92.4688C 226.008 92.4688 224.555 92.1953 223.195 91.6484C 221.836 91.1016 220.641 90.3281 219.609 89.3281C 218.594 88.3125 217.789 87.0859 217.195 85.6484C 216.617 84.1953 216.328 82.5703 216.328 80.7734L216.328 80.7734L216.328 66.8984L222.703 66.8984L222.703 80.7734C 222.703 81.6641 222.828 82.4453 223.078 83.1172C 223.344 83.7734 223.695 84.3281 224.133 84.7812C 224.57 85.2188 225.078 85.5469 225.656 85.7656C 226.25 85.9844 226.883 86.0938 227.555 86.0938C 228.211 86.0938 228.828 85.9453 229.406 85.6484C 230 85.3359 230.516 84.9297 230.953 84.4297C 231.391 83.9297 231.734 83.3672 231.984 82.7422C 232.234 82.1016 232.359 81.4453 232.359 80.7734L232.359 80.7734L232.359 66.8984L238.805 66.8984L238.805 88.8359C 238.789 90.6016 238.445 92.2578 237.773 93.8047C 237.102 95.3516 236.18 96.7031 235.008 97.8594C 233.852 99.0156 232.5 99.9297 230.953 100.602C 229.406 101.273 227.75 101.609 225.984 101.609L225.984 101.609L222.703 101.562zM271.219 88.5547C 269.656 89.8984 267.906 90.9297 265.969 91.6484C 264.031 92.3672 262.023 92.7266 259.945 92.7266C 258.352 92.7266 256.812 92.5156 255.328 92.0938C 253.859 91.6875 252.477 91.1094 251.18 90.3594C 249.898 89.5938 248.727 88.6797 247.664 87.6172C 246.602 86.5547 245.688 85.3828 244.922 84.1016C 244.172 82.8047 243.586 81.4219 243.164 79.9531C 242.758 78.4688 242.555 76.9297 242.555 75.3359C 242.555 73.7422 242.758 72.2031 243.164 70.7188C 243.586 69.2344 244.172 67.8516 244.922 66.5703C 245.688 65.2734 246.602 64.0938 247.664 63.0312C 248.727 61.9688 249.898 61.0625 251.18 60.3125C 252.477 59.5469 253.859 58.9609 255.328 58.5547C 256.812 58.1328 258.352 57.9219 259.945 57.9219C 262.023 57.9219 264.031 58.2812 265.969 59C 267.906 59.7031 269.656 60.7344 271.219 62.0938L271.219 62.0938L267.656 67.9531C 266.672 66.8906 265.508 66.0781 264.164 65.5156C 262.82 64.9375 261.414 64.6484 259.945 64.6484C 258.461 64.6484 257.07 64.9297 255.773 65.4922C 254.477 66.0547 253.344 66.8203 252.375 67.7891C 251.406 68.7422 250.641 69.875 250.078 71.1875C 249.516 72.4844 249.234 73.8672 249.234 75.3359C 249.234 76.8047 249.516 78.1875 250.078 79.4844C 250.641 80.7656 251.406 81.8906 252.375 82.8594C 253.344 83.8281 254.477 84.5938 255.773 85.1562C 257.07 85.7188 258.461 86 259.945 86C 261.414 86 262.82 85.7188 264.164 85.1562C 265.508 84.5781 266.672 83.7578 267.656 82.6953L267.656 82.6953L271.219 88.5547zM297.867 92L296.32 92L293.836 88.5547C 293.227 89.1016 292.578 89.6172 291.891 90.1016C 291.219 90.5703 290.508 90.9844 289.758 91.3438C 289.008 91.6875 288.234 91.9609 287.438 92.1641C 286.656 92.3672 285.859 92.4688 285.047 92.4688C 283.281 92.4688 281.617 92.1719 280.055 91.5781C 278.508 90.9844 277.148 90.125 275.977 89C 274.82 87.8594 273.906 86.4688 273.234 84.8281C 272.562 83.1875 272.227 81.3203 272.227 79.2266C 272.227 77.2734 272.562 75.4844 273.234 73.8594C 273.906 72.2188 274.82 70.8125 275.977 69.6406C 277.148 68.4688 278.508 67.5625 280.055 66.9219C 281.617 66.2656 283.281 65.9375 285.047 65.9375C 285.859 65.9375 286.664 66.0391 287.461 66.2422C 288.258 66.4453 289.031 66.7266 289.781 67.0859C 290.531 67.4453 291.242 67.8672 291.914 68.3516C 292.602 68.8359 293.242 69.3594 293.836 69.9219L293.836 69.9219L296.32 66.9453L297.867 66.9453L297.867 92zM291.422 79.2266C 291.422 78.3516 291.25 77.5078 290.906 76.6953C 290.578 75.8672 290.125 75.1406 289.547 74.5156C 288.969 73.875 288.289 73.3672 287.508 72.9922C 286.742 72.6016 285.922 72.4062 285.047 72.4062C 284.172 72.4062 283.344 72.5547 282.562 72.8516C 281.797 73.1484 281.125 73.5859 280.547 74.1641C 279.984 74.7422 279.539 75.4609 279.211 76.3203C 278.883 77.1641 278.719 78.1328 278.719 79.2266C 278.719 80.3203 278.883 81.2969 279.211 82.1562C 279.539 83 279.984 83.7109 280.547 84.2891C 281.125 84.8672 281.797 85.3047 282.562 85.6016C 283.344 85.8984 284.172 86.0469 285.047 86.0469C 285.922 86.0469 286.742 85.8594 287.508 85.4844C 288.289 85.0938 288.969 84.5859 289.547 83.9609C 290.125 83.3203 290.578 82.5938 290.906 81.7812C 291.25 80.9531 291.422 80.1016 291.422 79.2266zM316.547 92L301.922 92L301.922 85.625L316.547 85.625C 316.984 85.625 317.359 85.4688 317.672 85.1562C 317.984 84.8438 318.141 84.4688 318.141 84.0312C 318.141 83.5781 317.984 83.2812 317.672 83.1406C 317.359 83 316.984 82.9297 316.547 82.9297L316.547 82.9297L309.891 82.9297C 308.781 82.9297 307.742 82.7188 306.773 82.2969C 305.805 81.875 304.961 81.3047 304.242 80.5859C 303.523 79.8516 302.953 79 302.531 78.0312C 302.125 77.0625 301.922 76.0234 301.922 74.9141C 301.922 73.8047 302.125 72.7656 302.531 71.7969C 302.953 70.8281 303.523 69.9844 304.242 69.2656C 304.961 68.5469 305.805 67.9844 306.773 67.5781C 307.742 67.1562 308.781 66.9453 309.891 66.9453L309.891 66.9453L322.852 66.9453L322.852 73.3203L309.891 73.3203C 309.453 73.3203 309.078 73.4766 308.766 73.7891C 308.453 74.1016 308.297 74.4766 308.297 74.9141C 308.297 75.3672 308.453 75.7578 308.766 76.0859C 309.078 76.3984 309.453 76.5547 309.891 76.5547L309.891 76.5547L316.547 76.5547C 317.641 76.5547 318.672 76.7422 319.641 77.1172C 320.609 77.4766 321.453 77.9844 322.172 78.6406C 322.891 79.2969 323.461 80.0859 323.883 81.0078C 324.305 81.9297 324.516 82.9375 324.516 84.0312C 324.516 85.1406 324.305 86.1797 323.883 87.1484C 323.461 88.1016 322.891 88.9453 322.172 89.6797C 321.453 90.3984 320.609 90.9688 319.641 91.3906C 318.672 91.7969 317.641 92 316.547 92zM340.523 92C 338.977 92 337.523 91.7109 336.164 91.1328C 334.805 90.5391 333.609 89.7344 332.578 88.7188C 331.562 87.6875 330.758 86.4922 330.164 85.1328C 329.586 83.7734 329.297 82.3203 329.297 80.7734L329.297 80.7734L329.297 73.3203L326.18 73.3203L326.18 66.9453L329.297 66.9453L329.297 56.9141L335.672 56.9141L335.672 66.9453L345.375 66.9453L345.375 73.3203L335.672 73.3203L335.672 80.7734C 335.672 81.4453 335.797 82.0781 336.047 82.6719C 336.297 83.25 336.641 83.7578 337.078 84.1953C 337.516 84.6328 338.031 84.9844 338.625 85.25C 339.219 85.5 339.852 85.625 340.523 85.625L340.523 85.625L345.375 85.625L345.375 92L340.523 92z" stroke="none" fill="#FFFFFF" fill-rule="nonzero" />
    <path d="M100 50C 100.00001 63.80712 95.118454 75.59223 85.35534 85.35534C 75.59223 95.118454 63.80712 100.00001 50 100C 36.192883 100.00001 24.407768 95.118454 14.644661 85.35534C 4.8815536 75.59223 0 63.80712 0 50C 0 36.192883 4.8815536 24.407768 14.644661 14.644661C 24.407768 4.8815536 36.192883 0 50 0C 63.80712 0 75.59223 4.8815536 85.35534 14.644661C 95.118454 24.407768 100.00001 36.192883 100 50C 100.00001 50.581837 99.98985 51.163494 99.96954 51.744976" stroke="none" fill="#055C9D" fill-rule="nonzero" />
    <path d="M92 105.5C 92 90.864456 104.536026 79 120 79C 135.46397 79 148 90.864456 148 105.5C 148 120.135544 135.46397 132 120 132C 104.536026 132 92 120.135544 92 105.5" stroke="none" fill="#0E86D4" fill-rule="nonzero" />
    <path d="M50.9999 140C 50.9999 131.71573 58.06301 125 66.7758 125C 75.488594 125 82.551704 131.71573 82.551704 140C 82.551704 148.28427 75.488594 155 66.7758 155C 58.06301 155 50.9999 148.28427 50.9999 140" stroke="none" fill="#68BBE3" fill-rule="nonzero" />
</g>
</svg>